<svg width="128" height="36" viewBox="0 0 128 36" fill="none" xmlns="http://www.w3.org/2000/svg">
<path d="M3.08594 2.8125L13.8281 3.26172L12.8906 35.9766L0.976562 35.2734L3.08594 2.8125ZM27.2656 34.5312L14.9219 33.457L17.4805 2.73438L36.1719 16.1523L36.0156 2.05078L48.9648 1.93359L47.0508 35.9766L27.7539 24.1016L27.2656 34.5312ZM68.3984 21.7969C69.375 20.8789 69.9609 19.6094 70.1367 17.9688C70.2734 16.9727 70.1758 15.9766 69.8438 14.9805C69.5508 14.1016 69.1016 13.3984 68.4766 12.8711C67.7148 12.2266 66.6992 11.8555 65.4492 11.7969C63.9844 11.6992 62.6172 11.8555 61.3672 12.2461L61.1914 23.1445C62.5391 23.4766 63.9453 23.4961 65.3711 23.2422C66.6016 23.0078 67.6172 22.5195 68.3984 21.7969ZM80.8398 14.9609C80.9961 16.0156 81.0547 16.8945 81.0352 17.5977C81.2305 22.6172 79.8047 26.543 76.7578 29.375C74.3164 31.6211 70.8984 33.125 66.5039 33.8867C63.3594 34.4141 59.8828 34.5508 56.0742 34.2773C54.1797 34.1406 52.5977 33.9648 51.3281 33.7109L50.0391 2.53906C54.2383 1.23047 58.8672 0.605469 63.9258 0.644531C71.25 0.644531 76.2891 3.47656 79.0625 9.12109C79.5508 10.0977 79.9414 11.1328 80.2539 12.2461C80.5078 13.125 80.7031 14.0234 80.8398 14.9609ZM84.5312 2.8125L95.2734 3.26172L94.3359 35.9766L82.4219 35.2734L84.5312 2.8125ZM121.562 24.3164L124.863 31.6211C122.949 32.8906 120.859 33.75 118.594 34.2188C116.23 34.707 113.848 34.7461 111.445 34.2969C109.082 33.8477 106.875 33.0078 104.863 31.7383C102.93 30.5078 101.289 28.9648 99.9609 27.1484C98.6133 25.3125 97.6953 23.3203 97.168 21.1719C96.6406 18.9453 96.582 16.6992 96.9922 14.4336C97.4023 12.1875 98.2617 10.1172 99.5508 8.22266C100.82 6.40625 102.383 4.86328 104.277 3.63281C108.301 1.01562 112.734 0.15625 117.578 1.03516C121.719 1.79688 125.176 3.71094 127.93 6.77734L122.949 13.2617C121.777 12.1875 120.391 11.5039 118.789 11.2109C116.66 10.8203 114.707 11.1719 112.969 12.2461C111.211 13.3203 110.156 14.8047 109.805 16.7188C109.453 18.6328 109.902 20.4102 111.152 22.0312C112.422 23.6719 114.102 24.6875 116.23 25.0781C118.125 25.4297 119.902 25.1758 121.562 24.3164Z" fill="black"/>
</svg>
